<svg data-v-423bf9ae="" xmlns="http://www.w3.org/2000/svg" viewBox="0 0 38.28372006738224 60" class="icon"><!----><!----><!----><defs data-v-423bf9ae=""><linearGradient data-v-423bf9ae="" gradientTransform="rotate(25)" id="6cf9f368-d805-45e6-a25e-9d904f37801b" x1="0%" y1="0%" x2="100%" y2="0%"><stop data-v-423bf9ae="" offset="0%" style="stop-color: rgb(255, 90, 32); stop-opacity: 1;"></stop><stop data-v-423bf9ae="" offset="100%" style="stop-color: rgb(255, 172, 199); stop-opacity: 1;"></stop></linearGradient></defs><g data-v-423bf9ae="" id="9ca1c914-55ee-4547-a569-9df960eb6cf1" transform="matrix(0.7531916201839096,0,0,0.7531916201839096,-8.531886106597959,-8.214307913160852)" stroke="none" fill="url(#6cf9f368-d805-45e6-a25e-9d904f37801b)"><path d="M32.946 68.513l-.638-1.368a10.308 10.308 0 0 1-.536-1.516c-6.95-29.365-4.619-46.482-.512-52.218 1.095-1.529 2.354-2.372 3.742-2.505l.048.497c-1.239.119-2.377.892-3.384 2.298-4.046 5.651-6.319 22.611.592 51.812.066.278.3.986.502 1.42l.638 1.368-.452.212z"></path><path d="M30.28 68.965a.25.25 0 0 1-.249-.236c-.077-1.385-1.505-3.904-3.313-7.094-3.513-6.199-8.822-15.566-8.822-25.266 0-6.198 1.033-14.792 5.956-20.539 2.965-3.462 5.901-4.233 6.024-4.264a.25.25 0 1 1 .122.484c-.116.03-11.604 3.199-11.604 24.319 0 9.568 5.27 18.866 8.757 25.019 1.913 3.374 3.294 5.812 3.377 7.313a.25.25 0 0 1-.235.263l-.013.001z"></path><path d="M28.432 22.469l-.222-.329c-3.341-4.941-2.642-9.033-2.61-9.205l.491.089c-.007.04-.656 3.888 2.315 8.504 1.045-1.754 5.712-9.391 8.25-10.333l.174.468c-2.643.981-8.142 10.367-8.197 10.462l-.201.344z"></path><path d="M16.083 49.345l-.759-1.243c-.285-.466-.638-.934-1.011-1.428-.873-1.157-1.863-2.469-2.185-4.11l.49-.096c.3 1.528 1.212 2.737 2.094 3.906.141.187.279.371.413.552-.417-4.311 1.891-8.587 2.613-9.805-4.675-6.735-4.738-11.584-4.606-11.839l.222.116.25.012c-.002.045-.146 4.542 4.36 11.157 1.438-7.529 9.932-14.464 10.297-14.76l.382-.308.024.49c.145 2.868 8.189 12.801 8.27 12.901l.112.137-8.26 13.437-.221-.175c-4.365-3.464-7.9-7.068-10.511-10.715-.859 1.516-3.172 6.122-2.275 10.348l.301 1.423zm2.25-12.243c2.553 3.609 6.024 7.181 10.324 10.62l7.78-12.656c-.973-1.208-7.443-9.324-8.2-12.587-1.639 1.41-8.75 7.857-9.838 14.483l-.008.052-.028.044a.316.316 0 0 0-.03.044z"></path><path d="M33.336 68.91l-.256-.158c-1.72-1.062-3.772-3.65-5.192-5.635-.027-.037-2.535-3.61-2.709-4.302l-.017.001c-.366-5.161 3.241-10.365 3.395-10.583l.19-.271.208.258c.037.045 3.719 4.608 7.985 10.2l.064.084-.016.104c-.192 1.267-3.408 9.665-3.545 10.021l-.107.281zm-7.678-10.159c.28.629 4.461 7.345 7.431 9.409.564-1.48 3.1-8.166 3.388-9.527a537.669 537.669 0 0 0-7.696-9.835c-.739 1.147-3.416 5.638-3.123 9.953z"></path><path d="M40.184 68.91l-.108-.282c-.137-.356-3.353-8.755-3.545-10.021l-.016-.104.064-.084c4.267-5.591 7.949-10.154 7.986-10.2l.208-.258.19.271c.154.219 3.761 5.422 3.395 10.583l-.016-.001c-.175.692-2.683 4.265-2.71 4.302-1.419 1.985-3.472 4.573-5.192 5.635l-.256.159zm-3.14-10.277c.288 1.361 2.824 8.047 3.388 9.527 2.969-2.064 7.151-8.78 7.431-9.409.293-4.315-2.385-8.806-3.123-9.953a532.97 532.97 0 0 0-7.696 9.835zM26.897 68.657c-.913-1.715-1.91-5.277-1.743-9.711-3.729-2.001-7.657-7.401-9.122-9.548.226 1.639.651 4.077 1.144 4.691l-.389.312c-.821-1.023-1.327-5.493-1.382-5.999l-.116-1.062.574.901c.051.08 5.141 8.011 9.66 10.334l.142.073-.007.16c-.193 4.408.784 7.934 1.678 9.613l-.439.236z"></path><path d="M40.574 68.513l-.453-.21.638-1.369a9.634 9.634 0 0 0 .501-1.42c6.917-29.227 4.657-46.182.62-51.82-1.003-1.402-2.139-2.172-3.375-2.291l.048-.497c1.386.133 2.642.973 3.733 2.497 4.099 5.724 6.417 22.836-.539 52.226a10.126 10.126 0 0 1-.536 1.516l-.637 1.368z"></path><path d="M43.24 68.965h-.014a.249.249 0 0 1-.235-.263c.083-1.501 1.465-3.939 3.377-7.313 3.487-6.152 8.757-15.451 8.757-25.019 0-21.151-11.487-24.29-11.603-24.319-.134-.033-.215-.169-.181-.303s.169-.215.303-.181c.12.03 11.98 3.267 11.98 24.803 0 9.7-5.309 19.066-8.821 25.265-1.808 3.19-3.236 5.71-3.313 7.095a.25.25 0 0 1-.25.235z"></path><path d="M45.088 22.469l-.2-.343c-.055-.095-5.555-9.48-8.197-10.462l.174-.468c2.538.943 7.205 8.58 8.25 10.333 2.978-4.627 2.322-8.465 2.314-8.504l.491-.09c.031.172.73 4.264-2.611 9.205l-.221.329z"></path><path d="M57.438 49.345l.302-1.425c.897-4.226-1.416-8.832-2.275-10.348-2.612 3.648-6.146 7.251-10.511 10.715l-.221.175-8.26-13.437.112-.137c.081-.1 8.125-10.033 8.27-12.901l.025-.49.381.308c.366.295 8.859 7.23 10.297 14.76 4.514-6.626 4.362-11.111 4.36-11.156l.25-.013.221-.116c.132.254.069 5.104-4.605 11.839.723 1.217 3.03 5.494 2.613 9.805.133-.181.271-.365.413-.552.882-1.169 1.793-2.377 2.094-3.906l.49.096c-.323 1.641-1.312 2.953-2.185 4.11-.374.495-.726.962-1.011 1.428l-.76 1.245zm-20.355-14.28l7.779 12.656c4.299-3.438 7.771-7.01 10.324-10.62l-.028-.044-.029-.044-.008-.052c-1.088-6.626-8.199-13.074-9.838-14.483-.757 3.263-7.226 11.38-8.2 12.587z"></path><path d="M46.623 68.657l-.44-.234c.894-1.681 1.87-5.207 1.678-9.614l-.007-.16.142-.073c4.52-2.324 9.609-10.255 9.66-10.334l.574-.901-.115 1.062c-.055.506-.561 4.976-1.382 5.999l-.39-.312c.493-.615.918-3.053 1.144-4.691-1.465 2.147-5.393 7.546-9.122 9.548.167 4.432-.829 7.994-1.742 9.71zM36.837 90.567c-4.159 0-6.159-.599-6.242-.624-1.128-.346-2.272-1.559-2.552-2.705l-1.406-5.767c-.219-.898-.48-1.99-.48-2.087v-.087c.006-.247.141-.479 3.261-.675 1.958-.123 4.559-.191 7.324-.191s5.367.068 7.324.191c3.261.205 3.261.449 3.261.708-.001.167-.432 1.939-.481 2.141l-1.406 5.767c-.279 1.145-1.418 2.37-2.54 2.73-.076.026-1.903.599-6.063.599zM26.668 79.442c.047.214.223.964.454 1.911l1.406 5.767c.238.977 1.251 2.051 2.213 2.346.02.006 2.024.603 6.096.603 4.067 0 5.893-.568 5.91-.574.958-.308 1.97-1.396 2.208-2.374l1.406-5.767c.234-.959.389-1.641.445-1.914-.677-.225-4.319-.508-10.063-.508-5.774-.001-9.424.285-10.075.51z"></path><path d="M36.742 70.264c-3.76 0-9.322-.566-9.377-.572a.25.25 0 0 1-.224-.236l-.004-.09c-.468-1.902-1.487-2.688-1.497-2.696a.282.282 0 0 1-.036-.033c-8.03-8.949-11.475-16.932-12.952-22.052-1.605-5.566-1.308-8.963-1.294-9.105-.001-15.148 9.726-24.574 25.384-24.574s25.385 9.425 25.385 24.597c.012.119.31 3.516-1.295 9.082-1.477 5.121-4.922 13.103-12.952 22.052a.274.274 0 0 1-.036.032c-.009.007-1.036.815-1.485 2.778a.216.216 0 0 1-.015.045l-.023.052a.249.249 0 0 1-.203.147c-.055.007-5.616.573-9.376.573zm-9.129-1.049c1.023.101 5.794.55 9.129.55 3.371 0 8.209-.46 9.161-.554.475-1.933 1.459-2.794 1.62-2.925 7.944-8.859 11.357-16.75 12.821-21.81 1.586-5.484 1.289-8.917 1.286-8.951-.001-14.807-9.434-24.021-24.638-24.121v57.801h-.5v-57.8c-15.204.1-24.636 9.314-24.636 24.097-.004.058-.302 3.491 1.285 8.975 1.463 5.06 4.875 12.95 12.819 21.809.166.132 1.17.996 1.653 2.929zM46.094 78.351a.25.25 0 0 1-.25-.25v-7.622a.25.25 0 0 1 .5 0v7.622a.25.25 0 0 1-.25.25zM36.742 80.335c-3.759 0-7.183-.134-8.938-.349a12.18 12.18 0 0 1-.454-.064.249.249 0 0 1-.206-.287.254.254 0 0 1 .287-.206c.128.021.273.042.435.062 1.735.213 5.137.345 8.876.345 3.812 0 7.242-.136 8.952-.355a.252.252 0 0 1 .279.216.25.25 0 0 1-.216.279c-1.729.221-5.183.359-9.015.359zM27.39 78.351a.25.25 0 0 1-.25-.25v-7.622a.25.25 0 0 1 .5 0v7.622a.25.25 0 0 1-.25.25z"></path></g><!----></svg>